<svg width="30" height="29" viewBox="0 0 30 29" fill="none" xmlns="http://www.w3.org/2000/svg">
<path fill-rule="evenodd" clip-rule="evenodd" d="M14.7129 28.7179C22.6431 28.7179 29.0718 22.2892 29.0718 14.359C29.0718 6.42873 22.6431 0 14.7129 0C6.78261 0 0.353882 6.42873 0.353882 14.359C0.353882 22.2892 6.78261 28.7179 14.7129 28.7179ZM10.3041 11.4326C10.3292 11.4983 10.3386 11.5689 10.3316 11.6388V16.7552C10.347 16.8461 10.3408 16.9394 10.3137 17.0276C10.2866 17.1157 10.2392 17.1963 10.1754 17.2629L8.96923 18.7379V18.932H12.3907V18.7379L11.184 17.2629C11.0542 17.1285 10.9927 16.9407 11.0174 16.7552V12.3303L14.0213 18.932H14.3694L16.9494 12.3303V17.5926C16.9494 17.7327 16.9494 17.7597 16.8581 17.8516L15.9299 18.7591V18.9538H20.4352V18.7585L19.5392 17.8729C19.5003 17.8429 19.4703 17.8029 19.4524 17.7571C19.4345 17.7114 19.4293 17.6617 19.4375 17.6133V11.1035C19.4293 11.055 19.4345 11.0053 19.4524 10.9596C19.4703 10.9139 19.5003 10.8739 19.5392 10.8439L20.4564 9.95877V9.76407H17.2814L15.0184 15.4531L12.4441 9.76407H9.11397V9.95877L10.1869 11.2608C10.2388 11.3082 10.279 11.367 10.3041 11.4326Z" fill="white"/>
</svg>
