<svg width="30" height="30" viewBox="0 0 30 30" fill="none" xmlns="http://www.w3.org/2000/svg">
<path d="M15.3538 0C7.26572 0 0.707642 6.55808 0.707642 14.6462C0.707642 22.7342 7.26572 29.2923 15.3538 29.2923C23.4419 29.2923 29.9999 22.7342 29.9999 14.6462C29.9999 6.55808 23.4419 0 15.3538 0ZM22.3924 11.0402C22.4023 11.1938 22.4023 11.354 22.4023 11.511C22.4023 16.3102 18.7473 21.8385 12.0682 21.8385C10.0086 21.8385 8.09937 21.2402 6.49091 20.2104C6.78514 20.2431 7.0663 20.2562 7.36706 20.2562C9.06706 20.2562 10.6298 19.6808 11.8753 18.7065C10.2799 18.6738 8.93956 17.6277 8.48187 16.1892C9.04091 16.271 9.54437 16.271 10.1198 16.1238C9.29828 15.957 8.55993 15.5108 8.03012 14.8612C7.50031 14.2116 7.21173 13.3986 7.21341 12.5604V12.5146C7.69399 12.786 8.25956 12.9527 8.8513 12.9756C8.35386 12.6441 7.94591 12.1949 7.66362 11.668C7.38133 11.141 7.23343 10.5526 7.23303 9.95481C7.23303 9.27808 7.40956 8.66019 7.72668 8.12404C8.63848 9.24648 9.77626 10.1645 11.0661 10.8184C12.3559 11.4723 13.7689 11.8475 15.2132 11.9196C14.6999 9.45135 16.5438 7.45385 18.7603 7.45385C19.8065 7.45385 20.748 7.89192 21.4117 8.59808C22.2323 8.44442 23.0169 8.13711 23.7165 7.72519C23.4451 8.56538 22.8763 9.27481 22.1211 9.72269C22.8534 9.64423 23.5596 9.44154 24.2134 9.15711C23.7198 9.88288 23.1019 10.5269 22.3924 11.0402Z" fill="white"/>
</svg>
