<svg width="29" height="29" viewBox="0 0 29 29" fill="none" xmlns="http://www.w3.org/2000/svg">
<path fill-rule="evenodd" clip-rule="evenodd" d="M28.7179 14.359C28.7179 22.2887 22.2887 28.7179 14.359 28.7179C6.42923 28.7179 0 22.2887 0 14.359C0 6.42923 6.42923 0 14.359 0C22.2887 0 28.7179 6.42923 28.7179 14.359ZM14.8735 10.6005C13.4771 11.1809 10.6855 12.3834 6.49983 14.207C5.82017 14.4774 5.46359 14.7419 5.43128 15.0003C5.37624 15.4383 5.92427 15.6106 6.66855 15.8439C6.77026 15.8762 6.87556 15.9085 6.98325 15.9444C7.71675 16.1826 8.70274 16.4614 9.21487 16.4721C9.68034 16.4817 10.1997 16.2903 10.7728 15.8978C14.6832 13.2569 16.7019 11.9227 16.8287 11.894C16.9185 11.8737 17.0429 11.8474 17.1267 11.9227C17.2104 11.9969 17.2021 12.1381 17.1937 12.1764C17.1386 12.4074 14.992 14.4044 13.8791 15.4383C13.5321 15.7602 13.2868 15.9887 13.2366 16.0414C13.1241 16.1574 13.0092 16.2687 12.8991 16.3752C12.2171 17.0309 11.7074 17.5239 12.9279 18.328C13.5142 18.7145 13.9832 19.034 14.4511 19.3523C14.9621 19.7005 15.4718 20.0475 16.1323 20.4807C16.2998 20.5908 16.4602 20.7044 16.6169 20.8157C17.2116 21.2405 17.7465 21.621 18.407 21.5612C18.7899 21.5253 19.1872 21.1651 19.3882 20.0894C19.8632 17.5455 20.799 12.0364 21.0156 9.7653C21.0287 9.57674 21.0207 9.38729 20.9916 9.20051C20.9742 9.04966 20.9008 8.91086 20.7858 8.81162C20.6147 8.67162 20.3491 8.64171 20.2294 8.6441C19.6897 8.65368 18.8617 8.94205 14.8735 10.6005Z" fill="white"/>
</svg>
